<mxfile host="Electron" agent="Mozilla/5.0 (Windows NT 10.0; Win64; x64) AppleWebKit/537.36 (KHTML, like Gecko) draw.io/26.1.1 Chrome/132.0.6834.210 Electron/34.3.3 Safari/537.36" version="26.1.1">
  <diagram name="Page-1" id="K_oM_3QEhF43Xw7bgKsz">
    <mxGraphModel dx="324" dy="209" grid="1" gridSize="10" guides="1" tooltips="1" connect="1" arrows="1" fold="1" page="1" pageScale="1" pageWidth="850" pageHeight="1100" math="0" shadow="0">
      <root>
        <mxCell id="0" />
        <mxCell id="1" parent="0" />
        <mxCell id="xFmcri-JAPDj5g8B1ajq-1" value="" style="rounded=0;whiteSpace=wrap;html=1;strokeColor=none;" parent="1" vertex="1">
          <mxGeometry x="390" y="320" width="120" height="140" as="geometry" />
        </mxCell>
        <mxCell id="xFmcri-JAPDj5g8B1ajq-2" value="" style="rounded=0;whiteSpace=wrap;html=1;fillColor=#28D460;fontColor=#ffffff;strokeColor=#808080;perimeterSpacing=1;" parent="1" vertex="1">
          <mxGeometry x="400" y="360" width="40" height="20" as="geometry" />
        </mxCell>
        <mxCell id="xFmcri-JAPDj5g8B1ajq-3" value="" style="rounded=0;whiteSpace=wrap;html=1;fillColor=#F8FC00;fontColor=#000000;strokeColor=#808080;" parent="1" vertex="1">
          <mxGeometry x="400" y="380" width="40" height="20" as="geometry" />
        </mxCell>
        <mxCell id="xFmcri-JAPDj5g8B1ajq-4" value="" style="rounded=0;whiteSpace=wrap;html=1;fillColor=#F80000;fontColor=#ffffff;strokeColor=#808080;" parent="1" vertex="1">
          <mxGeometry x="400" y="400" width="40" height="20" as="geometry" />
        </mxCell>
        <mxCell id="xFmcri-JAPDj5g8B1ajq-5" value="Kjørbar" style="text;html=1;align=center;verticalAlign=middle;whiteSpace=wrap;rounded=0;" parent="1" vertex="1">
          <mxGeometry x="447.5" y="355" width="37" height="30" as="geometry" />
        </mxCell>
        <mxCell id="xFmcri-JAPDj5g8B1ajq-6" value="Forsiktig" style="text;html=1;align=center;verticalAlign=middle;whiteSpace=wrap;rounded=0;" parent="1" vertex="1">
          <mxGeometry x="447.5" y="375" width="42.5" height="30" as="geometry" />
        </mxCell>
        <mxCell id="xFmcri-JAPDj5g8B1ajq-7" value="Ukjørbar" style="text;html=1;align=center;verticalAlign=middle;whiteSpace=wrap;rounded=0;" parent="1" vertex="1">
          <mxGeometry x="447.5" y="395" width="42.5" height="30" as="geometry" />
        </mxCell>
      </root>
    </mxGraphModel>
  </diagram>
</mxfile>
